<svg xmlns="http://www.w3.org/2000/svg" viewBox="0 0 512 512" width="512" height="512">
  <!-- 背景圆形 -->
  <circle cx="256" cy="256" r="256" fill="#4a90e2"/>
  
  <!-- 太阳 -->
  <circle cx="180" cy="180" r="60" fill="#ffeb3b"/>
  
  <!-- 云朵 -->
  <path d="M380 260c0-33.1-26.9-60-60-60-6.3 0-12.4 1-18.1 2.8-11.5-23.6-35.8-39.8-63.9-39.8-39.3 0-71 31.7-71 71 0 1.1 0 2.2 0.1 3.3-25.6 3.5-45.1 25.5-45.1 52.1 0 29 23.5 52.5 52.5 52.5h185c33.1 0 60-26.9 60-60z" fill="#ffffff"/>
  
  <!-- 雨滴 -->
  <path d="M200 350l-15 50M240 350l-15 50M280 350l-15 50M320 350l-15 50" stroke="#ffffff" stroke-width="8" stroke-linecap="round"/>
</svg>